<svg width="22" height="17" viewBox="0 0 22 17" fill="none" xmlns="http://www.w3.org/2000/svg">
<path d="M18.6031 1.42375C17.1815 0.758625 15.6615 0.275242 14.0724 0C13.8772 0.352851 13.6492 0.827443 13.492 1.20498C11.8027 0.95093 10.1289 0.95093 8.47071 1.20498C8.31353 0.827443 8.08035 0.352851 7.88344 0C6.29258 0.275242 4.77082 0.760401 3.34924 1.42727C0.481901 5.76019 -0.295386 9.98549 0.0932582 14.1508C1.99503 15.571 3.83807 16.4337 5.65001 16.9983C6.09739 16.3825 6.49639 15.728 6.84012 15.0382C6.18547 14.7895 5.55846 14.4825 4.96601 14.1261C5.12319 14.0097 5.27693 13.8879 5.42546 13.7627C9.03899 15.4528 12.9652 15.4528 16.5355 13.7627C16.6858 13.8879 16.8395 14.0097 16.995 14.1261C16.4008 14.4842 15.7721 14.7912 15.1174 15.04C15.4611 15.728 15.8584 16.3843 16.3075 17C18.1212 16.4355 19.966 15.5728 21.8677 14.1508C22.3237 9.32214 21.0887 5.13565 18.6031 1.42375ZM7.33241 11.5892C6.24767 11.5892 5.35809 10.5765 5.35809 9.34331C5.35809 8.11012 6.22867 7.0957 7.33241 7.0957C8.43618 7.0957 9.32573 8.10835 9.30673 9.34331C9.30845 10.5765 8.43618 11.5892 7.33241 11.5892ZM14.6286 11.5892C13.5438 11.5892 12.6543 10.5765 12.6543 9.34331C12.6543 8.11012 13.5248 7.0957 14.6286 7.0957C15.7323 7.0957 16.6219 8.10835 16.6029 9.34331C16.6029 10.5765 15.7323 11.5892 14.6286 11.5892Z" fill="white"/>
</svg>
