<svg width="18" height="18" viewBox="0 0 18 18" fill="none" xmlns="http://www.w3.org/2000/svg">
<path d="M8.41344 0.208304C8.75398 -0.0694348 9.24286 -0.0694348 9.58337 0.208304L10.3176 0.807159C10.5487 0.995584 10.8564 1.06119 11.1441 0.983394L12.0564 0.736835C12.48 0.622336 12.9257 0.821043 13.1238 1.21263L13.5548 2.06503C13.6891 2.33029 13.9424 2.51498 14.236 2.56149L15.1735 2.71001C15.6054 2.77845 15.9306 3.13993 15.953 3.57673L16.0023 4.53839C16.0175 4.83407 16.1732 5.10466 16.4213 5.26633L17.2234 5.78915C17.5886 6.02727 17.7382 6.48807 17.5823 6.89533L17.2373 7.7971C17.1317 8.07297 17.1641 8.38267 17.3245 8.63067L17.8484 9.4402C18.0851 9.80607 18.0345 10.2875 17.727 10.5962L17.0485 11.2773C16.8399 11.4868 16.7439 11.7832 16.7901 12.0753L16.9411 13.0285C17.0093 13.4597 16.7669 13.88 16.3595 14.037L15.47 14.3794C15.1932 14.4861 14.9842 14.7188 14.908 15.0056L14.6617 15.9328C14.5493 16.3563 14.1553 16.6429 13.7177 16.6195L12.7728 16.5689C12.4755 16.553 12.1886 16.6811 12.002 16.9131L11.4062 17.6543C11.1309 17.9967 10.6529 18.0984 10.2621 17.8978L9.42112 17.466C9.15577 17.3298 8.84107 17.3298 8.57573 17.466L7.73471 17.8978C7.34392 18.0984 6.86595 17.9967 6.5907 17.6543L5.99481 16.9131C5.80822 16.6811 5.52138 16.553 5.22403 16.5689L4.27911 16.6195C3.84159 16.6429 3.44759 16.3563 3.33512 15.9328L3.08881 15.0056C3.01265 14.7188 2.80369 14.4861 2.52686 14.3794L1.63739 14.037C1.22991 13.88 0.987517 13.4597 1.0558 13.0285L1.20673 12.0753C1.25297 11.7832 1.15693 11.4868 0.948301 11.2773L0.269837 10.5962C-0.0376827 10.2875 -0.0882218 9.80607 0.148479 9.4402L0.672254 8.63067C0.832717 8.38267 0.865158 8.07297 0.759589 7.7971L0.414496 6.89533C0.258645 6.48807 0.408198 6.02727 0.7735 5.78915L1.57559 5.26633C1.82362 5.10466 1.97933 4.83407 1.9945 4.53839L2.04385 3.57673C2.06627 3.13993 2.39138 2.77845 2.82337 2.71001L3.76086 2.56149C4.05445 2.51498 4.30783 2.33029 4.44198 2.06503L4.87306 1.21263C5.07109 0.821043 5.51689 0.622336 5.9405 0.736835L6.8527 0.983394C7.1405 1.06119 7.44815 0.995584 7.67918 0.807159L8.41344 0.208304Z" fill="#00FFA3"/>
<path d="M11.8182 7L7.81818 11L6 9.18182" stroke="#111111" stroke-width="2" stroke-linecap="round" stroke-linejoin="round"/>
</svg>
